<svg xmlns="http://www.w3.org/2000/svg" viewBox="0 0 24 24">
  <path d="M21.6 12.23c0-.74-.07-1.45-.19-2.13H12v4.03h5.4a4.62 4.62 0 0 1-2 3.03v2.52h3.24c1.9-1.74 2.99-4.31 2.99-7.45z" fill="#4285F4"></path>
  <path d="M12 22c2.7 0 4.96-.9 6.62-2.42l-3.23-2.52c-.9.6-2.04.96-3.39.96-2.6 0-4.81-1.76-5.6-4.12H3.06v2.6A10 10 0 0 0 12 22z" fill="#34A853"></path>
  <path d="M6.4 13.9a6.02 6.02 0 0 1 0-3.82V7.48H3.06a10 10 0 0 0 0 9.04l3.34-2.62z" fill="#FBBC05"></path>
  <path d="M12 5.96c1.47 0 2.79.5 3.82 1.49l2.86-2.86A10 10 0 0 0 12 2 10 10 0 0 0 3.06 7.48L6.4 10.1c.79-2.36 3-4.13 5.6-4.13z" fill="#EA4335"></path>
</svg>